<svg width="30" height="27" viewBox="0 0 30 27" fill="none" xmlns="http://www.w3.org/2000/svg">
<path d="M9.94733 12.7895L12.0789 6.39473H24.8684L27 12.7895H9.94733ZM24.8684 19.8947C24.3031 19.8947 23.7609 19.6702 23.3611 19.2704C22.9614 18.8707 22.7368 18.3285 22.7368 17.7632C22.7368 17.1978 22.9614 16.6556 23.3611 16.2559C23.7609 15.8561 24.3031 15.6316 24.8684 15.6316C25.4337 15.6316 25.9759 15.8561 26.3756 16.2559C26.7754 16.6556 27 17.1978 27 17.7632C27 18.3285 26.7754 18.8707 26.3756 19.2704C25.9759 19.6702 25.4337 19.8947 24.8684 19.8947ZM12.0789 19.8947C11.5136 19.8947 10.9714 19.6702 10.5717 19.2704C10.1719 18.8707 9.94733 18.3285 9.94733 17.7632C9.94733 17.1978 10.1719 16.6556 10.5717 16.2559C10.9714 15.8561 11.5136 15.6316 12.0789 15.6316C12.6442 15.6316 13.1864 15.8561 13.5862 16.2559C13.9859 16.6556 14.2105 17.1978 14.2105 17.7632C14.2105 18.3285 13.9859 18.8707 13.5862 19.2704C13.1864 19.6702 12.6442 19.8947 12.0789 19.8947ZM26.8863 5.68421C26.5879 4.83157 25.7779 4.26315 24.8684 4.26315H12.0789C11.1694 4.26315 10.3594 4.83157 10.061 5.68421L7.10522 14.2105V25.5789C7.10522 25.9558 7.25494 26.3173 7.52144 26.5838C7.78794 26.8503 8.14939 27 8.52628 27H9.94733C10.3242 27 10.6857 26.8503 10.9522 26.5838C11.2187 26.3173 11.3684 25.9558 11.3684 25.5789V24.1579H25.5789V25.5789C25.5789 25.9558 25.7286 26.3173 25.9951 26.5838C26.2616 26.8503 26.6231 27 27 27H28.421C28.7979 27 29.1594 26.8503 29.4259 26.5838C29.6924 26.3173 29.8421 25.9558 29.8421 25.5789V14.2105L26.8863 5.68421Z" fill="#5586BC"/>
<path d="M19.7811 1.42105C19.4826 0.568421 18.6726 0 17.7632 0H4.97368C4.06421 0 3.25421 0.568421 2.95579 1.42105L0 9.94737V21.3158C0 21.6927 0.149718 22.0541 0.416217 22.3206C0.682716 22.5871 1.04417 22.7368 1.42105 22.7368H2.84211C3.21899 22.7368 3.58044 22.5871 3.84694 22.3206C4.11344 22.0541 4.26316 21.6927 4.26316 21.3158V15.5037C4.00085 15.4096 3.75966 15.2647 3.55339 15.0774C3.34712 14.89 3.1798 14.6638 3.06102 14.4117C2.94224 14.1596 2.87431 13.8866 2.86113 13.6082C2.84795 13.3299 2.88978 13.0517 2.98421 12.7895C3.29684 11.9368 4.07842 11.3684 4.97368 11.3684H5.07316L6.06789 8.52631H2.84211L4.97368 2.13158H20.0226L19.7811 1.42105Z" fill="#7B878E"/>
</svg>
