<svg width="35" height="34" viewBox="0 0 35 34" fill="none" xmlns="http://www.w3.org/2000/svg">
<g opacity="0.7">
<path d="M15.4253 6.19159V0C10.9158 0.429474 6.90737 2.61263 4.11578 5.86948L9.16211 9.41264C10.7726 7.73054 12.9916 6.54948 15.4253 6.19159Z" fill="#0C529F"/>
<path d="M27.8083 15.3537H33.9999C33.2483 7.22948 26.7704 0.75158 18.6462 0V6.19158C23.3704 6.87159 27.1283 10.6295 27.8083 15.3537Z" fill="#E25025"/>
<path d="M6.12001 16.9642C6.12001 15.2106 6.54948 13.5284 7.30106 12.0611L2.25474 8.51791C0.823159 11.0232 0 13.8863 0 16.9642C0 23.8358 4.08 29.7411 9.94948 32.4611L11.9895 26.6274C8.48211 24.8022 6.12001 21.1516 6.12001 16.9642Z" fill="#142935" fill-opacity="0.8"/>
<path d="M17.036 27.88C16.356 27.88 15.676 27.8085 15.0317 27.7011L13.0275 33.499C14.3159 33.8211 15.676 34 17.0717 34C25.9475 34 33.2128 27.2358 34.036 18.5748H27.8086C27.057 23.8358 22.5117 27.88 17.036 27.88Z" fill="#142935" fill-opacity="0.8"/>
<path d="M11.1305 18.6105H13.4926C13.7432 18.6105 13.9221 18.4316 13.9221 18.181V14.1368C13.9221 13.8863 13.7432 13.7073 13.4926 13.7073H11.1305C10.88 13.7073 10.701 13.8863 10.701 14.1368V18.1452C10.701 18.3958 10.88 18.6105 11.1305 18.6105Z" fill="#142935" fill-opacity="0.8"/>
<path d="M15.4252 18.181C15.4252 18.4315 15.6041 18.6105 15.8546 18.6105H18.2168C18.4673 18.6105 18.6462 18.4315 18.6462 18.181V10.5579C18.6462 10.3073 18.4673 10.1284 18.2168 10.1284H15.8546C15.6041 10.1284 15.4252 10.3073 15.4252 10.5579V18.181Z" fill="#142935" fill-opacity="0.8"/>
<path d="M23.4063 12.4547C23.4063 12.2042 23.2273 12.0252 22.9768 12.0252H20.6147C20.3642 12.0252 20.1852 12.2042 20.1852 12.4547V18.181C20.1852 18.4315 20.3642 18.6105 20.6147 18.6105H22.9768C23.2273 18.6105 23.4063 18.4315 23.4063 18.181V12.4547Z" fill="#142935" fill-opacity="0.8"/>
<path d="M11.1305 22.1537H22.9768C23.2274 22.1537 23.4063 21.9747 23.4063 21.7242V20.4358C23.4063 20.1853 23.2274 20.0063 22.9768 20.0063H11.1305C10.88 20.0063 10.701 20.1853 10.701 20.4358V21.7242C10.701 21.9747 10.88 22.1537 11.1305 22.1537Z" fill="#142935" fill-opacity="0.8"/>
</g>
</svg>
