<svg width="36" height="35" viewBox="0 0 36 35" fill="none" xmlns="http://www.w3.org/2000/svg">
<path d="M34.0867 13.6504H31.3761C31.042 12.5129 30.5964 11.4487 30.0394 10.458L31.9702 8.54986C32.4529 8.07283 32.4529 7.33894 31.9702 6.86191L28.2942 3.22913C27.8486 2.7521 27.0689 2.7521 26.6233 3.22913L24.6925 5.13726C23.6899 4.58684 22.6131 4.1465 21.462 3.85294V1.17423C21.462 0.513726 20.9422 0 20.2738 0H15.0383C14.3699 0 13.8501 0.513726 13.8501 1.17423V3.85294C12.699 4.18319 11.6222 4.62353 10.6196 5.17395L8.68878 3.26583C8.2432 2.7888 7.46344 2.7888 7.01786 3.26583L3.34184 6.8986C2.85913 7.33894 2.85913 8.10953 3.34184 8.54986L5.27268 10.458C4.7157 11.4487 4.23299 12.5129 3.97307 13.6504H1.18821C0.519841 13.6504 0 14.1641 0 14.8247V19.9619C0 20.6224 0.556973 21.1361 1.18821 21.1361H3.89881C4.23299 22.2737 4.67857 23.3378 5.23554 24.3286L3.34184 26.2367C2.85913 26.677 2.85913 27.4476 3.34184 27.888L7.01786 31.5207C7.46344 31.9978 8.2432 31.9978 8.68878 31.5207L10.6196 29.6126C11.6222 30.163 12.699 30.6401 13.8501 30.8969V33.5756C13.8501 34.2361 14.3699 34.7499 15.0383 34.7499H20.2367C20.905 34.7499 21.4249 34.1994 21.4249 33.5756V30.8969C21.8705 30.7868 22.316 30.6401 22.6874 30.4566L19.1227 26.9706C18.64 27.044 18.1202 27.0807 17.6375 27.0807C12.2163 27.0807 7.83475 22.7507 7.83475 17.3933C7.83475 12.0359 12.2163 7.70588 17.6375 7.70588C23.0587 7.70588 27.4402 12.0359 27.4402 17.3933C27.4402 17.907 27.4031 18.384 27.3288 18.8611L30.9306 22.3838C31.1162 21.9801 31.2276 21.5398 31.3761 21.0994H34.0867C34.7551 21.0994 35.2749 20.5857 35.2749 19.9252V14.788C35.2749 14.1641 34.7551 13.6504 34.0867 13.6504Z" fill="#142935" fill-opacity="0.6"/>
<path d="M23.4161 19.2838C23.7502 18.3298 23.8245 17.2656 23.6388 16.1648C23.2304 13.853 21.411 11.8715 19.1459 11.2477C17.9206 10.9174 16.7324 10.9174 15.6556 11.2477C15.2471 11.3578 15.0986 11.8715 15.3956 12.1651L17.8463 14.5869C18.7375 15.4676 18.7375 16.8987 17.8463 17.816C16.9552 18.6967 15.507 18.6967 14.5788 17.816L12.1652 15.3575C11.8682 15.0639 11.3483 15.2107 11.2369 15.6144C10.9399 16.6785 10.9027 17.8527 11.2369 19.0637C11.8682 21.3387 13.8733 23.1001 16.2125 23.5037C17.3265 23.6872 18.4033 23.6138 19.3687 23.2835L28.2803 32.0903C28.7259 32.5306 29.3942 32.5306 29.8398 32.0903L32.3276 29.6317C32.7732 29.1914 32.7732 28.5309 32.3276 28.0905L23.4161 19.2838Z" fill="#E25025" fill-opacity="0.7"/>
</svg>
