<svg width="34" height="34" viewBox="0 0 34 34" fill="none" xmlns="http://www.w3.org/2000/svg">
<path d="M27.7794 15.3537H33.9645C33.2137 7.22948 26.7426 0.751579 18.627 0V6.19158C23.3462 6.87158 27.1001 10.6295 27.7794 15.3537Z" fill="#727F86"/>
<path d="M15.4089 6.19158V0C10.9042 0.429474 6.89997 2.61263 4.11133 5.86947L9.15234 9.41263C10.7612 7.73053 12.9778 6.54947 15.4089 6.19158Z" fill="#EB8566"/>
<path d="M17.0179 27.88C16.3386 27.88 15.6593 27.8084 15.0158 27.701L13.0137 33.4989C14.3007 33.821 15.6593 34 17.0536 34C25.9201 34 33.1777 27.2358 34 18.5747H27.7792C27.0284 23.8358 22.4879 27.88 17.0179 27.88Z" fill="#142935" fill-opacity="0.6"/>
<path d="M6.11356 16.9642C6.11356 15.2105 6.54259 13.5284 7.29338 12.0611L2.25237 8.5179C0.822292 11.0232 0 13.8863 0 16.9642C0 23.8358 4.07571 29.7411 9.93901 32.4611L11.9769 26.6274C8.47319 24.8021 6.11356 21.1516 6.11356 16.9642Z" fill="#5586BC"/>
<path d="M16.0525 23.2632V24.5516C16.0525 24.7663 16.2313 24.9095 16.41 24.9095H17.7686C17.9831 24.9095 18.1261 24.7305 18.1261 24.5516V23.2632L18.2691 23.2274C19.2344 23.0484 20.021 22.6547 20.593 22.0463C21.2008 21.4021 21.5225 20.5432 21.5225 19.5411C21.5225 19.2905 21.4868 19.0042 21.451 18.7895C21.4153 18.539 21.3438 18.3242 21.2723 18.1453C21.2008 17.9663 21.0935 17.7516 20.9863 17.5726C20.879 17.3937 20.736 17.2505 20.593 17.1074C20.45 16.9642 20.2712 16.8569 20.0925 16.7137C19.9137 16.6063 19.6992 16.499 19.5204 16.3916C19.3774 16.32 19.1629 16.2126 18.8412 16.1053C18.5909 15.9979 18.3406 15.9263 18.1261 15.8547C17.9116 15.7832 17.6256 15.7116 17.3396 15.6042C16.6245 15.3895 16.1598 15.1747 15.8738 14.96C15.5877 14.7811 15.4447 14.5305 15.4447 14.2442C15.4447 13.9579 15.552 13.7074 15.8023 13.5284C16.0525 13.3495 16.41 13.2779 16.8391 13.2779C17.6613 13.2779 18.5551 13.5642 19.4132 14.1369C19.5562 14.2442 19.7707 14.2084 19.9137 14.0653L21.022 12.6695C21.0935 12.5979 21.1293 12.4905 21.0935 12.3832C21.0935 12.2758 21.022 12.2042 20.9505 12.1326C20.593 11.8821 20.164 11.6316 19.6992 11.4169C19.1987 11.2021 18.6982 11.0232 18.1976 10.88L18.0546 10.8442V9.34106C18.0546 9.12633 17.8759 8.98317 17.6971 8.98317H16.3385C16.124 8.98317 15.981 9.16212 15.981 9.34106V10.7369L15.9095 10.8084C14.9442 10.9516 14.1577 11.3453 13.5856 11.9537C12.9779 12.6337 12.6561 13.4569 12.6561 14.4232C12.6561 14.6379 12.6918 14.8884 12.6918 15.1032C12.7276 15.3179 12.7991 15.5326 12.8706 15.6758C12.9421 15.8547 13.0136 16.0337 13.1209 16.1769C13.2281 16.32 13.3354 16.499 13.4784 16.6063C13.6214 16.7495 13.7644 16.8569 13.8717 16.9642C14.0147 17.0716 14.1577 17.179 14.3722 17.2863C14.5509 17.3937 14.7297 17.4653 14.8727 17.5369C15.0515 17.6084 15.2302 17.7158 15.4447 17.7874L15.6235 17.859C15.7665 17.8947 15.9095 17.9663 16.0168 18.0021L16.6245 18.2169C16.8748 18.2884 17.1251 18.36 17.3038 18.4316C17.4826 18.5032 17.6613 18.5747 17.8401 18.6463C17.9831 18.7179 18.1261 18.7895 18.2334 18.8611C18.3406 18.9326 18.4121 19.0042 18.4836 19.1116C18.5551 19.219 18.5909 19.2905 18.6266 19.3979C18.6624 19.5053 18.6624 19.6126 18.6624 19.7558C18.6624 20.0779 18.5194 20.3284 18.2691 20.5432C17.6971 20.9726 16.6603 20.9369 15.552 20.4716C15.0515 20.2569 14.5867 19.9705 14.1577 19.6126C14.0862 19.5411 14.0147 19.5053 13.9074 19.5053C13.8002 19.5053 13.6929 19.5411 13.6214 19.6484L12.4773 21.0442C12.3701 21.1874 12.3701 21.4021 12.5131 21.5453C13.4426 22.44 14.5867 23.0126 15.838 23.2274L16.0525 23.2632Z" fill="#5586BC"/>
</svg>
